<svg width="144" height="23" viewBox="0 0 144 23" fill="none" xmlns="http://www.w3.org/2000/svg">
    <path d="M0.65332 21.8123H4.56721V12.8851H12.8787V9.19111H4.56721V3.86998H13.9781V0.0880127H0.65332V21.8123Z" fill="url(#paint0_linear_141_3040)"/>
    <path d="M31.8323 13.4128C31.3486 14.864 30.4691 16.0513 29.3257 16.8429C28.1823 17.6785 26.819 18.0743 25.3238 18.0743C23.4329 18.0743 21.8937 17.3706 20.5304 15.9634C19.1672 14.5562 18.5075 12.929 18.5075 10.9501C18.5075 8.97116 19.1672 7.30006 20.5304 5.89282C21.8937 4.48558 23.4768 3.78196 25.3238 3.78196C26.7751 3.78196 28.0943 4.17775 29.2377 4.92534C30.3371 5.67294 31.1727 6.77235 31.6564 8.22357L31.7444 8.5314H35.6143L35.4824 8.00368C34.8667 5.54101 33.6354 3.60605 31.8323 2.15484C30.0293 0.703618 27.8305 0 25.3678 0C22.4654 0 19.9148 1.0994 17.8479 3.25424C15.781 5.45306 14.7695 8.09163 14.7695 11.038C14.7695 13.9405 15.825 16.5791 17.8479 18.7779C19.8708 20.9327 22.4214 22.0321 25.3678 22.0321C27.8745 22.0321 30.0733 21.2405 31.9203 19.7454C33.7673 18.2502 35.0426 16.2273 35.6583 13.7646L35.7902 13.2369H31.9643L31.8323 13.4128Z" fill="url(#paint1_linear_141_3040)"/>
    <path d="M47.9722 17.9424C47.7963 17.9864 47.6204 17.9864 47.4445 17.9864H41.4197V12.2255H47.4005C48.236 12.2255 48.8517 12.4893 49.2915 13.061C49.7752 13.6327 49.9951 14.2924 49.9951 15.1279C49.9951 15.3038 49.9951 15.4797 49.9511 15.6556L53.1614 12.0056C53.1174 11.9176 53.0734 11.8737 53.0734 11.7857C52.5897 10.9502 51.9301 10.2905 51.0505 9.7628C51.7981 9.05918 52.3258 8.17965 52.5017 7.21217C52.7656 5.98084 52.6337 4.83745 52.1499 3.78202C51.7102 2.68261 51.0066 1.75911 50.083 1.09947C49.1595 0.439824 48.0162 0.0880127 46.6529 0.0880127H37.5498V21.8123H44.586L47.9722 17.9424ZM41.4197 3.826H46.6529C47.1806 3.826 47.5764 3.95793 47.9282 4.26576C48.28 4.5736 48.4999 4.92541 48.5439 5.36517C48.6318 5.84891 48.6318 6.33265 48.5439 6.81639C48.4559 7.25615 48.236 7.60796 47.8842 7.9158C47.5324 8.22363 47.0927 8.35556 46.6089 8.35556H41.4197V3.826Z" fill="url(#paint2_linear_141_3040)"/>
    <path d="M72.2653 0.344604L65.6645 10.0491L60.9433 3.14229L55.96 8.82511V21.9393H59.8068V8.34426L64.5716 15.3822H66.7136L71.4784 8.34426V21.9393H75.3252V0.344604H72.2653Z" fill="white"/>
    <path d="M77.3364 4.10423H81.1833V18.1801H77.3364V21.9395H88.8769V18.1801H85.0301V4.10423H88.8769V0.38855H77.3364V4.10423Z" fill="white"/>
    <path d="M103.215 13.9834L93.7728 0.344604H90.8003V21.9393H94.6908V8.43168L104.002 21.9393H107.062V0.344604H103.215V13.9834Z" fill="white"/>
    <path d="M124.067 11.7104C123.542 11.0984 122.886 10.6176 122.056 10.2678C121.313 9.96185 120.569 9.69956 119.914 9.56842C119.258 9.39356 118.471 9.26242 117.597 9.17499C117.029 9.13128 116.592 9.08757 116.242 9.04385C115.936 9.00014 115.542 8.91271 115.105 8.82528C114.668 8.73785 114.362 8.60671 114.144 8.43186C113.925 8.30072 113.706 8.08214 113.532 7.81986C113.357 7.60129 113.269 7.33901 113.269 6.9893C113.226 6.33359 113.357 5.80902 113.663 5.37188C114.362 4.45389 115.499 4.01675 117.072 3.97304C117.99 3.97304 118.821 4.14789 119.564 4.58503C120.263 4.97846 120.701 5.54673 120.875 6.28987L120.963 6.63958L124.766 6.50844L124.679 6.02759C124.416 4.14789 123.542 2.66162 122.099 1.6562C120.701 0.69449 119.04 0.169922 117.204 0.169922C115.892 0.169922 114.668 0.432204 113.444 0.913058C112.264 1.43763 111.258 2.13705 110.559 3.09876C109.641 4.32275 109.204 5.76531 109.335 7.33901C109.422 8.21329 109.597 9.00014 109.991 9.65585C110.34 10.3116 110.778 10.8798 111.302 11.2733C111.783 11.6667 112.395 12.0164 113.138 12.2787C113.838 12.541 114.493 12.7158 115.062 12.8033C115.63 12.8907 116.329 12.9781 117.116 13.0655C117.728 13.1092 118.253 13.1967 118.646 13.2404C119.04 13.3278 119.433 13.4152 119.914 13.5464C120.307 13.6775 120.657 13.8087 120.875 14.0272C121.094 14.2021 121.225 14.4644 121.269 14.7267C121.313 14.9889 121.356 15.1638 121.356 15.3387C121.356 16.2129 120.963 16.8686 120.132 17.4369C119.258 18.0052 118.253 18.3112 117.16 18.3112C116.154 18.3112 115.236 18.0489 114.406 17.5681C113.619 17.1309 113.182 16.5189 113.094 15.7321L113.051 14.989L109.16 15.0764L109.204 16.1255C109.335 17.3932 109.86 18.4861 110.69 19.4478C111.521 20.3658 112.526 21.0652 113.663 21.5023C114.756 21.9395 115.936 22.158 117.072 22.158C119.171 22.158 121.05 21.546 122.711 20.3221C124.373 19.0981 125.247 17.4369 125.247 15.3824C125.247 14.9452 125.203 14.4644 125.072 13.8961C124.985 13.0655 124.591 12.3224 124.067 11.7104Z" fill="white"/>
    <path d="M134.907 11.0545L143.125 0.344604H138.317L131.192 9.83053V0.344604H127.345V21.9393H131.192V12.4534L139.016 21.9393H144L134.907 11.0545Z" fill="white"/>
    <defs>
        <linearGradient id="paint0_linear_141_3040" x1="0.653321" y1="18.8753" x2="13.977" y2="13.4784" gradientUnits="userSpaceOnUse">
            <stop stop-color="#86375E"/>
            <stop offset="0.328783" stop-color="#4F508F"/>
            <stop offset="0.681115" stop-color="#3869AB"/>
            <stop offset="1" stop-color="#2D86BE"/>
        </linearGradient>
        <linearGradient id="paint1_linear_141_3040" x1="25.2766" y1="4.02409e-09" x2="19.8797" y2="22.0375" gradientUnits="userSpaceOnUse">
            <stop stop-color="#E91857"/>
            <stop offset="0.324782" stop-color="#E71643"/>
            <stop offset="0.633387" stop-color="#ED5716"/>
            <stop offset="1" stop-color="#F4A910"/>
        </linearGradient>
        <linearGradient id="paint2_linear_141_3040" x1="51.9808" y1="2.81099" x2="37.5609" y2="14.42" gradientUnits="userSpaceOnUse">
            <stop stop-color="#753263"/>
            <stop offset="0.328836" stop-color="#98295A"/>
            <stop offset="0.65485" stop-color="#D00B60"/>
            <stop offset="1" stop-color="#E10971"/>
        </linearGradient>
    </defs>
</svg>
