<svg width="199" height="60" viewBox="0 0 199 60" fill="none" xmlns="http://www.w3.org/2000/svg">
    <path d="M83.3375 46.3338C77.9486 46.3338 73.6695 44.1829 73.6695 36.4634V23.1878C73.4599 16.8585 78.4213 13.2147 83.0005 13.2517C88.4716 13.2147 93.0713 15.4807 93.2111 23.706L86.7616 23.632C86.7616 20.5722 84.8255 19.8813 83.4732 19.8813C83.0169 19.8813 80.2258 19.9923 80.2258 23.4757L80.267 35.0528C80.267 39.0668 81.6604 39.7166 83.4732 39.7166C85.2859 39.7166 86.7123 39.2313 86.7123 35.1721V33.0828H83.4732V26.4697H91.1722C91.7265 26.4858 92.2523 26.7189 92.6366 27.1188C93.021 27.5187 93.2331 28.0535 93.2275 28.6083V36.8089C93.2111 44.5612 88.7758 46.3338 83.3375 46.3338Z" fill="black"/>
    <path d="M136.289 46.3338C130.839 46.3338 126.506 44.1828 126.506 36.4634V23.1878C126.506 15.4807 130.839 13.2434 136.289 13.2434C141.74 13.2434 146.077 15.4807 146.077 23.1878V36.4799C146.077 44.1829 141.793 46.3338 136.289 46.3338ZM139.545 23.3276C139.545 19.8812 137.49 19.8812 136.289 19.8812C134.851 19.8812 133.063 19.8812 133.063 23.3276V36.2948C133.063 39.6055 134.637 39.7206 136.289 39.7206C137.942 39.7206 139.545 39.5849 139.545 36.2948V23.3276Z" fill="black"/>
    <path d="M162.959 46.2969C156.793 46.2969 152.95 42.978 152.95 36.5828V13.2559H159.527V35.131C159.527 38.4211 160.283 39.6837 162.856 39.6837C165.105 39.6837 166.075 38.5692 166.075 35.2914V13.2559H172.602V36.5828C172.615 42.4186 169.084 46.2969 162.959 46.2969Z" fill="black"/>
    <path d="M189.595 33.1076H185.986V46.2681H179.454V13.2805H189.595C195.72 13.2805 199 15.7481 199 22.6245V23.776C199 30.6071 195.822 33.1076 189.595 33.1076ZM192.472 22.9C192.472 20.8971 191.708 19.8813 188.929 19.8813H185.99V26.5191H188.929C191.708 26.5191 192.472 25.1907 192.472 23.5004V22.9Z" fill="black"/>
    <path d="M110.245 13.2805H100.108V46.2598H106.636V33.0994H110.245C116.473 33.0994 119.65 30.5989 119.65 23.7678V22.6162C119.646 15.7481 116.357 13.2805 110.245 13.2805ZM113.122 22.9V23.6567C113.122 23.7102 113.122 23.7596 113.122 23.813C113.122 23.8665 113.122 23.8624 113.122 23.8912C113.122 23.9199 113.122 23.9899 113.122 24.0392C113.122 24.0886 113.122 24.142 113.122 24.1873C113.122 24.2325 113.122 24.286 113.094 24.3353V24.4052C112.826 25.639 111.897 26.5191 109.641 26.5191H106.698V19.8813H109.641C110.47 19.8308 111.299 19.9907 112.05 20.346L112.173 20.4201L112.235 20.4612C112.942 20.9588 113.18 21.7731 113.18 22.9H113.122Z" fill="black"/>
    <path d="M108.942 29.7722H106.056L115.461 46.3338L122.955 46.2639L114.709 31.7381L117.257 29.9696" fill="black"/>
    <path d="M30.6524 53.0457L14.0252 13.334L0 46.6793H7.27979L13.9677 30.5125L22.1476 50.2121L30.6524 53.0457Z" fill="black"/>
    <path d="M64.6793 13.3379L50.0087 47.0863L34.4873 9.74345L41.5986 9.50903L50.0581 29.6528L57.379 13.3379H64.6793Z" fill="black"/>
    <path d="M35.0178 9.81346C37.3978 9.81346 38.1911 9.81346 40.5711 9.81346L41.7139 9.78879C41.4014 9.0444 40.6492 7.08677 40.3574 6.39174C38.1664 1.23448 34.9931 -0.21728 29.8097 0.0253662C22.4395 0.366716 19.4141 7.83939 21.0378 12.6224C24.9181 21.8265 30.2824 34.8101 34.1587 43.9978L42.5236 46.6258C39.8394 40.1977 28.2765 12.4291 27.9928 11.7834C27.9476 11.6559 27.9147 11.5284 27.8818 11.4051C27.7989 11.1078 27.7574 10.8006 27.7585 10.492C27.757 10.2289 27.7873 9.96649 27.849 9.71064C27.9648 9.23814 28.1812 8.79621 28.4834 8.41506C28.7857 8.03391 29.1665 7.72253 29.6001 7.50216C29.9339 7.33262 30.2914 7.21475 30.6606 7.15258C31.3296 7.05348 32.0129 7.15361 32.6254 7.44047C33.279 7.7524 33.8058 8.2794 34.1175 8.93335C34.3218 9.33276 34.5003 9.74487 34.6519 10.1671C34.6971 10.0931 34.9109 9.81346 35.0178 9.81346Z" fill="black"/>
    <path d="M35.1573 11.3599C35.1409 11.3722 35.1409 11.3763 35.1573 11.3599V11.3599Z" fill="black"/>
    <path d="M28.8438 50.1873C26.4638 50.1873 25.6704 50.1873 23.2904 50.1873C23.1301 50.1873 22.3409 50.1873 22.1477 50.2119C22.4601 50.9563 23.2164 52.914 23.5041 53.6049C25.6951 58.7621 28.8684 60.2139 34.0518 59.9754C41.422 59.634 44.4474 52.1613 42.8279 47.3783C38.9434 38.1742 33.5791 25.1906 29.707 16.0029L21.3379 13.3708C24.0221 19.803 35.5851 47.5716 35.8687 48.2173C35.9139 48.3448 35.9468 48.4682 35.9797 48.5957C36.0626 48.8929 36.1041 49.2001 36.103 49.5087C36.1045 49.7705 36.0742 50.0315 36.0126 50.286C35.8975 50.7593 35.6814 51.2022 35.3791 51.5841C35.0769 51.966 34.6956 52.278 34.2615 52.4986C33.9277 52.6681 33.5701 52.786 33.2009 52.8481C32.5333 52.9457 31.8517 52.8456 31.2402 52.5603C30.6078 52.2488 30.1066 51.7226 29.8262 51.0756C29.5941 50.6782 29.3881 50.266 29.2096 49.8418C29.1644 49.9076 28.9506 50.1873 28.8438 50.1873Z" fill="black"/>
    <path d="M27.6354 45.8691H20.3433L20.9023 47.2058H28.2109L27.6354 45.8691Z" fill="#00EAFC"/>
    <path d="M42.9514 12.6636H35.7168L36.2553 14.0043H43.494L42.9514 12.6636Z" fill="#00EAFC"/>
</svg>
