<svg xmlns="http://www.w3.org/2000/svg" width="83" height="83" viewBox="0 0 83 83" fill="none">
    <path d="M41.5 5.1875C33.9358 5.19642 26.684 8.20525 21.3352 13.554C15.9865 18.9027 12.9777 26.1545 12.9688 33.7188C12.9597 39.9002 14.9789 45.914 18.7165 50.8375C18.7165 50.8375 19.4947 51.862 19.6217 52.0099L41.5 77.8125L63.3887 51.9969C63.5028 51.8594 64.2835 50.8375 64.2835 50.8375L64.2861 50.8297C68.0219 45.9084 70.0401 39.8974 70.0313 33.7188C70.0224 26.1545 67.0135 18.9027 61.6648 13.554C56.3161 8.20525 49.0642 5.19642 41.5 5.1875ZM41.5 44.0938C39.448 44.0938 37.4422 43.4853 35.736 42.3452C34.0298 41.2052 32.7 39.5849 31.9148 37.6891C31.1295 35.7933 30.9241 33.7072 31.3244 31.6947C31.7247 29.6821 32.7128 27.8335 34.1638 26.3825C35.6148 24.9315 37.4634 23.9434 39.476 23.5431C41.4885 23.1428 43.5746 23.3482 45.4704 24.1335C47.3662 24.9188 48.9865 26.2486 50.1265 27.9547C51.2665 29.6609 51.875 31.6668 51.875 33.7188C51.8716 36.4693 50.7774 39.1062 48.8325 41.0512C46.8875 42.9961 44.2506 44.0903 41.5 44.0938Z" fill="black"/>
</svg>
