<svg width="70" height="118" viewBox="0 0 70 118" fill="none" xmlns="http://www.w3.org/2000/svg">
    <path fill-rule="evenodd" clip-rule="evenodd" d="M9.97479 19.1365H16.3226C17.8337 19.1365 19.1188 19.6655 20.1765 20.7232C21.2349 21.7816 21.764 23.0656 21.764 24.5775V35.4588C21.764 36.9709 21.2349 38.2549 20.1772 39.3133C19.119 40.371 17.8344 40.8999 16.3233 40.8999H5.44099C3.92973 40.8999 2.64476 40.371 1.5867 39.3133C0.528734 38.2549 0 36.9709 0 35.4588V15.5093C0 13.5445 0.38263 11.6694 1.14779 9.88407C1.91295 8.09856 2.9471 6.55424 4.25072 5.25112C5.55444 3.94739 7.09866 2.91295 8.88397 2.14769C10.6695 1.38293 12.5441 1 14.5091 1H16.3226C16.8138 1 17.2387 1.17985 17.5977 1.53836C17.9565 1.89737 18.1361 2.32268 18.1361 2.8138V6.44139C18.1361 6.93261 17.9566 7.35752 17.5977 7.71653C17.2386 8.07534 16.8137 8.25489 16.3226 8.25489H14.5091C12.5066 8.25489 10.7967 8.96347 9.37975 10.38C7.96268 11.7971 7.25409 13.5067 7.25409 15.5094V16.4158C7.25409 17.1717 7.51881 17.814 8.04754 18.343C8.57658 18.8721 9.21906 19.1365 9.97479 19.1365ZM41.7137 19.1365C43.2253 19.1365 44.5099 19.6655 45.5676 20.7232C46.6254 21.7816 47.1536 23.0655 47.1535 24.5775V35.4588C47.1535 36.9709 46.6254 38.2549 45.5669 39.3133C44.5092 40.371 43.2247 40.8999 41.7131 40.8999H30.8314C29.32 40.8999 28.0353 40.371 26.9775 39.3133C25.9199 38.2549 25.3906 36.9709 25.3906 35.4588V15.5093C25.3906 13.5445 25.7738 11.6694 26.5387 9.88407C27.3036 8.09856 28.3382 6.55424 29.6419 5.25112C30.9457 3.94739 32.4894 2.91295 34.2744 2.14769C36.0604 1.38293 37.9346 1 39.9007 1H41.7138C42.2051 1 42.6303 1.17985 42.989 1.53836C43.3477 1.89737 43.5278 2.32268 43.5278 2.8138V6.44139C43.5278 6.93261 43.3476 7.35752 42.989 7.71653C42.6302 8.07534 42.205 8.25489 41.7138 8.25489H39.9007C37.8972 8.25489 36.1875 8.96347 34.771 10.38C33.3546 11.7971 32.646 13.5067 32.646 15.5094V16.4158C32.646 17.1717 32.9102 17.814 33.4395 18.343C33.9676 18.8721 34.6107 19.1365 35.366 19.1365H41.7137Z" fill="#333333"/>
    <path d="M68 2L67.5 116.25" stroke="#00EAFC" stroke-width="2" stroke-linecap="square"/>
</svg>
