<svg xmlns="http://www.w3.org/2000/svg" width="200" height="96" viewBox="0 0 200 96" fill="none">
    <path d="M61.7705 62.7649H74.4634V66.9057H68.4253V95.9999H61.7705V62.7649Z" fill="#00EAFC"/>
    <path d="M81.9917 83.5232L83.1322 66.9057H83.5142L84.6547 83.5232H81.9917ZM74.6221 95.9999H81.1377L81.7544 87.1736H84.8921L85.5115 95.9999H92.0244L88.5538 62.7649H78.0927L74.6221 95.9999Z" fill="#00EAFC"/>
    <path d="M101.552 84.3676V90.6333C101.552 91.4778 102.207 91.7229 102.589 91.7229C103.216 91.7229 103.653 91.2054 103.653 90.6333V82.8966C103.653 81.8614 103.462 80.7173 100.979 80.7173H98.2778V77.0669H101.088C102.971 77.0669 103.653 76.631 103.653 74.5878V67.9953C103.653 67.4233 103.216 66.9057 102.589 66.9057C102.207 66.9057 101.552 67.1236 101.552 67.9953V73.4164H94.8945V68.7036C94.8945 66.3881 95.1674 62.7649 99.8331 62.7649H105.345C110.01 62.7649 110.311 66.3881 110.311 68.7036V74.0158C110.311 77.6389 107.773 78.6196 105.781 78.5379V78.8648C110.256 78.7558 110.311 82.1883 110.311 83.3597V90.0612C110.311 92.404 110.01 95.9999 105.345 95.9999H99.8331C95.1674 95.9999 94.8945 92.404 94.8945 90.0612V84.3676H101.552Z" fill="#00EAFC"/>
    <path d="M114.677 62.7649H130.093V95.9999H123.435V66.9057H121.334V95.9999H114.677V62.7649Z" fill="#00EAFC"/>
    <path d="M141.117 81.0442V66.9057H141.99C142.699 66.9057 143.217 67.505 143.217 68.5674V79.3824C143.217 80.4448 142.699 81.0442 141.99 81.0442H141.117ZM134.459 95.9999H141.117V84.6946H144.936C149.575 84.6946 149.875 81.0986 149.875 78.7558V68.7036C149.875 66.3881 149.575 62.7649 144.936 62.7649H134.459V95.9999Z" fill="#00EAFC"/>
    <path d="M163 90.6333C163 91.2054 162.563 91.7229 161.936 91.7229C161.554 91.7229 160.899 91.4778 160.899 90.6333V67.9953C160.899 67.1236 161.554 66.9057 161.936 66.9057C162.563 66.9057 163 67.4233 163 67.9953V90.6333ZM154.241 90.0612C154.241 92.404 154.541 95.9999 159.18 95.9999H164.719C169.357 95.9999 169.657 92.404 169.657 90.0612V68.7036C169.657 66.3881 169.357 62.7649 164.719 62.7649H159.18C154.541 62.7649 154.241 66.3881 154.241 68.7036V90.0612Z" fill="#00EAFC"/>
    <path d="M191.322 62.7649H199.999V95.9999H193.341V75.1599H193.096L189.658 95.9999H184.337L180.927 75.1599H180.681V95.9999H174.023V62.7649H182.673L187.011 86.1384L191.322 62.7649Z" fill="#00EAFC"/>
    <path d="M53.1455 17.3258C51.1073 8.41771 45.9995 1.1714 45.2956 0C44.1823 1.66175 40.1087 8.06357 38.0378 15.1464C35.7759 23.0738 35.443 30.1022 36.2233 36.9944C36.9982 43.9138 39.9259 51.0239 39.9259 51.0239C41.4811 54.7288 43.8113 58.7333 45.3283 60.6947C47.552 57.8071 52.6625 49.1987 54.256 37.9751C55.1427 31.7095 55.1809 26.2339 53.1455 17.3258ZM45.2956 58.4609C44.2942 56.5812 42.739 53.0126 42.5916 47.4552C42.5534 42.1158 44.7008 37.512 45.3283 36.5585C45.8877 37.512 47.7376 41.5165 47.9586 46.9921C48.1087 52.3315 46.3297 56.554 45.2956 58.4609ZM52.5534 32.445C52.477 35.8502 52.0704 39.4461 51.552 41.5982C51.7375 37.8934 51.2928 32.6902 50.4415 28.6039C49.5902 24.5449 47.181 17.7344 45.2574 14.6016C43.4811 17.5982 41.2929 23.4824 40.1469 28.5767C38.9955 33.6709 38.9627 39.8548 38.9627 41.7072C38.6572 40.1544 37.8932 34.5699 38.1087 28.9853C38.2888 24.3814 39.3693 19.6141 39.9614 17.4348C42.2206 10.1612 44.7772 5.50284 45.2574 4.7673C45.7376 5.50284 48.9572 11.2509 50.6271 17.2713C52.2887 23.2917 52.6243 29.067 52.5534 32.445Z" fill="#00EAFC"/>
    <path d="M48.7518 62.765H33.2566V73.1441C33.2703 73.1441 33.2812 73.1169 33.2948 73.1169C36.9456 69.4665 42.8664 69.4665 46.5198 73.1169C50.1706 76.7401 50.1706 82.6515 46.5198 86.3019C46.5035 86.3292 46.4871 86.3292 46.4707 86.3564C46.4516 86.3564 46.4325 86.3837 46.4162 86.4109C42.7736 90.0068 38.0151 91.8048 33.2566 91.8048C28.4763 91.8048 23.696 90.0068 20.0507 86.3564C13.6224 79.9546 12.8612 70.0113 17.7615 62.765C18.4218 61.7843 19.1831 60.8581 20.0507 59.9863C23.696 56.3359 28.4763 54.538 33.2566 54.538V29.5845C14.8884 29.5845 -0.000976562 44.4312 -0.000976562 62.765C-0.000976562 81.0987 14.8884 95.9728 33.2566 95.9728C42.8337 95.9728 51.4612 91.9137 57.5293 85.4574V62.765H48.7518Z" fill="#00EAFC"/>
</svg>
