<svg width="293" height="93" viewBox="0 0 293 93" fill="none" xmlns="http://www.w3.org/2000/svg">
    <path fill-rule="evenodd" clip-rule="evenodd" d="M283.223 5.22025H285.348C285.527 5.19941 285.701 5.15398 285.868 5.08524L286.23 4.74773C286.284 4.5566 286.284 4.35383 286.23 4.1627C286.25 3.96532 286.203 3.76704 286.094 3.60018L285.778 3.26266C285.611 3.19392 285.436 3.14849 285.258 3.12765H283.155L283.223 5.22025ZM284.489 6.03029H283.223V9.02293H282.319V2.27261H285.032C285.635 2.21904 286.239 2.3871 286.727 2.74514C286.908 2.92818 287.048 3.14705 287.137 3.38745C287.227 3.62785 287.263 3.88434 287.247 4.1402C287.259 4.40204 287.213 4.6633 287.112 4.90524C287.035 5.11731 286.91 5.30953 286.75 5.46776C286.58 5.60945 286.39 5.7234 286.185 5.80528C285.974 5.89625 285.755 5.96413 285.529 6.00779L287.609 9.00042H286.479L284.489 6.03029ZM279.696 5.67027C279.696 6.3122 279.828 6.94741 280.081 7.53786C280.323 8.10412 280.678 8.61662 281.121 9.04543C281.571 9.48687 282.104 9.83541 282.69 10.071C283.275 10.3065 283.904 10.4245 284.534 10.418C285.181 10.4314 285.823 10.317 286.424 10.0814C287.026 9.84581 287.575 9.49367 288.039 9.04543C288.475 8.61089 288.828 8.0998 289.079 7.53786C289.332 6.94741 289.463 6.3122 289.463 5.67027C289.467 5.03513 289.336 4.40632 289.079 3.82519C288.828 3.25649 288.475 2.73798 288.039 2.29512C287.116 1.40822 285.884 0.908705 284.602 0.900051C283.958 0.903022 283.32 1.03303 282.726 1.28257C282.149 1.52346 281.62 1.86652 281.166 2.29512C280.736 2.7389 280.39 3.25751 280.149 3.82519C279.875 4.40362 279.721 5.03122 279.696 5.67027ZM278.792 5.67027C278.781 4.89691 278.937 4.13014 279.244 3.42017C279.852 2.08446 280.94 1.02446 282.296 0.450031C283.7 -0.137345 285.28 -0.150218 286.693 0.414204C288.106 0.978625 289.241 2.07485 289.847 3.46517C290.161 4.17418 290.324 4.94047 290.324 5.71527C290.324 6.49007 290.161 7.25637 289.847 7.96538C289.232 9.28331 288.131 10.3148 286.773 10.8455C286.056 11.1443 285.287 11.2973 284.512 11.2955C283.736 11.2992 282.965 11.1461 282.251 10.8455C281.573 10.566 280.958 10.1527 280.442 9.63045C279.918 9.11345 279.495 8.50277 279.199 7.83037C278.896 7.11866 278.742 6.35306 278.747 5.58027L278.792 5.67027ZM204.919 28.4967H183.532V42.4023H204.919C211.158 42.4023 215.861 41.1872 215.861 35.3145C215.861 30.1842 211.588 28.4967 204.919 28.4967ZM173.653 28.4967V20.4863H204.647C211.091 20.4863 213.917 18.9112 213.917 14.7485C213.917 10.5858 211.091 8.96576 204.647 8.96576H173.653V0.932891H204.014C215.861 0.932891 223.751 4.19554 223.751 13.601C223.894 15.692 223.421 17.7792 222.389 19.6061C221.356 21.4329 219.811 22.9198 217.941 23.8839C220.287 24.9455 222.272 26.6642 223.652 28.8299C225.034 30.9956 225.751 33.5146 225.718 36.0795C225.718 45.3949 218.144 50.4352 205.891 50.4352H173.653V28.4967ZM279.908 50.4352L274.663 39.1847L270.775 30.8818L260.262 8.80825L249.817 30.6793L245.658 39.1847L240.3 50.4352H229.832L254.701 0.932891H266.004L290.466 50.4352H279.908ZM151.271 50.4352H161.128V0.932891H151.294V50.4352H151.271ZM89.1003 50.4352H113.765C130.404 50.4352 142.047 42.2673 142.047 25.369C142.047 7.52569 129.297 0.932891 113.358 0.932891H89.1003V50.4352ZM98.9346 42.1323V9.23577H108.905C125.408 9.23577 132.19 13.3985 132.19 25.504C132.19 37.0921 125.679 42.1323 108.905 42.1323H98.9346ZM23.6967 50.4352H33.1241V13.3985L68.1884 50.4352H77.2314V0.932891H67.7814V36.687L34.0962 0.932891H23.6967V50.4352ZM1.33789 50.4352H11.1722V0.932891H1.33789V50.4352Z" fill="#1E5395"/>
    <path d="M15.9704 76.7883C15.9704 79.6056 15.2038 81.7615 13.6706 83.2558C12.1451 84.7423 9.94649 85.4856 7.07462 85.4856H2.34653V68.4178H7.57661C10.2306 68.4178 12.293 69.1533 13.764 70.6242C15.2349 72.0952 15.9704 74.1499 15.9704 76.7883ZM13.8691 76.8583C13.8691 74.6324 13.3087 72.9552 12.188 71.8267C11.075 70.6982 9.41726 70.1339 7.21471 70.1339H4.33116V83.7695H6.74774C9.11373 83.7695 10.8921 83.1897 12.0829 82.03C13.2737 80.8626 13.8691 79.1387 13.8691 76.8583ZM50.4619 85.4856H40.9473V68.4178H50.4619V70.1806H42.932V75.6792H50.0066V77.4303H42.932V83.7111H50.4619V85.4856ZM84.93 85.4856H75.4154V68.4178H84.93V70.1806H77.4001V75.6792H84.4747V77.4303H77.4001V83.7111H84.93V85.4856ZM120.706 73.391C120.706 75.1188 120.114 76.4497 118.931 77.3836C117.756 78.3098 116.071 78.7729 113.876 78.7729H111.868V85.4856H109.884V68.4178H114.308C118.573 68.4178 120.706 70.0755 120.706 73.391ZM111.868 77.0684H113.654C115.413 77.0684 116.686 76.7844 117.472 76.2162C118.258 75.6481 118.651 74.7375 118.651 73.4844C118.651 72.3559 118.281 71.5154 117.542 70.9628C116.802 70.4102 115.651 70.1339 114.086 70.1339H111.868V77.0684ZM180.127 69.9471C178.252 69.9471 176.769 70.5736 175.679 71.8267C174.598 73.0719 174.057 74.7803 174.057 76.9517C174.057 79.1854 174.578 80.9132 175.621 82.1351C176.672 83.3492 178.166 83.9563 180.104 83.9563C181.295 83.9563 182.653 83.7422 184.178 83.3142V85.0536C182.995 85.4973 181.536 85.7191 179.8 85.7191C177.286 85.7191 175.345 84.9564 173.975 83.4309C172.613 81.9055 171.932 79.738 171.932 76.9283C171.932 75.1694 172.259 73.6284 172.913 72.3053C173.574 70.9822 174.524 69.9627 175.761 69.2467C177.006 68.5306 178.469 68.1726 180.151 68.1726C181.941 68.1726 183.505 68.4995 184.844 69.1533L184.003 70.8577C182.711 70.2507 181.419 69.9471 180.127 69.9471ZM219.79 85.4856L217.666 80.0571H210.825L208.723 85.4856H206.715L213.463 68.3477H215.132L221.845 85.4856H219.79ZM217.047 78.2709L215.062 72.9824C214.805 72.3131 214.541 71.492 214.268 70.5192C214.097 71.2663 213.852 72.0874 213.533 72.9824L211.525 78.2709H217.047ZM247.336 78.3876V85.4856H245.351V68.4178H250.032C252.126 68.4178 253.671 68.8186 254.667 69.6202C255.671 70.4219 256.173 71.6282 256.173 73.2393C256.173 75.4963 255.029 77.0217 252.741 77.8156L257.376 85.4856H255.029L250.896 78.3876H247.336ZM247.336 76.6832H250.056C251.457 76.6832 252.484 76.4069 253.138 75.8543C253.792 75.2939 254.118 74.4573 254.118 73.3443C254.118 72.2158 253.784 71.4025 253.114 70.9044C252.453 70.4063 251.387 70.1573 249.916 70.1573H247.336V76.6832ZM290.805 85.4856H281.29V68.4178H290.805V70.1806H283.275V75.6792H290.349V77.4303H283.275V83.7111H290.805V85.4856Z" fill="#1E5395"/>
</svg>
