<svg width="293" height="93" viewBox="0 0 293 93" fill="none" xmlns="http://www.w3.org/2000/svg">
    <path fill-rule="evenodd" clip-rule="evenodd" d="M283.223 5.22025H285.348C285.527 5.19941 285.701 5.15398 285.868 5.08524L286.23 4.74773C286.284 4.5566 286.284 4.35383 286.23 4.1627C286.25 3.96532 286.203 3.76704 286.094 3.60018L285.778 3.26266C285.611 3.19392 285.436 3.14849 285.258 3.12765H283.155L283.223 5.22025ZM284.489 6.03029H283.223V9.02293H282.319V2.27261H285.032C285.635 2.21904 286.239 2.3871 286.727 2.74514C286.908 2.92818 287.048 3.14705 287.137 3.38745C287.227 3.62785 287.263 3.88434 287.247 4.1402C287.259 4.40204 287.213 4.6633 287.112 4.90524C287.035 5.11731 286.91 5.30953 286.75 5.46776C286.58 5.60945 286.39 5.7234 286.185 5.80528C285.974 5.89625 285.755 5.96413 285.529 6.00779L287.609 9.00042H286.479L284.489 6.03029ZM279.696 5.67027C279.696 6.3122 279.828 6.94741 280.081 7.53786C280.323 8.10412 280.678 8.61662 281.121 9.04543C281.571 9.48687 282.104 9.83541 282.69 10.071C283.275 10.3065 283.904 10.4245 284.534 10.418C285.181 10.4314 285.823 10.317 286.424 10.0814C287.026 9.84581 287.575 9.49367 288.039 9.04543C288.475 8.61089 288.828 8.0998 289.079 7.53786C289.332 6.94741 289.463 6.3122 289.463 5.67027C289.467 5.03513 289.336 4.40632 289.079 3.82519C288.828 3.25649 288.475 2.73798 288.039 2.29512C287.116 1.40822 285.884 0.908705 284.602 0.900051C283.958 0.903022 283.32 1.03303 282.726 1.28257C282.149 1.52346 281.62 1.86652 281.166 2.29512C280.736 2.7389 280.39 3.25751 280.149 3.82519C279.875 4.40362 279.721 5.03122 279.696 5.67027ZM278.792 5.67027C278.781 4.89691 278.937 4.13014 279.244 3.42017C279.852 2.08446 280.94 1.02446 282.296 0.450031C283.7 -0.137345 285.28 -0.150218 286.693 0.414204C288.106 0.978625 289.241 2.07485 289.847 3.46517C290.161 4.17418 290.324 4.94047 290.324 5.71527C290.324 6.49007 290.161 7.25637 289.847 7.96538C289.232 9.28331 288.131 10.3148 286.773 10.8455C286.056 11.1443 285.287 11.2973 284.512 11.2955C283.736 11.2992 282.965 11.1461 282.251 10.8455C281.573 10.566 280.958 10.1527 280.442 9.63045C279.918 9.11345 279.495 8.50277 279.199 7.83037C278.896 7.11866 278.742 6.35306 278.747 5.58027L278.792 5.67027ZM204.919 28.4967H183.532V42.4023H204.919C211.158 42.4023 215.861 41.1872 215.861 35.3145C215.861 30.1842 211.588 28.4967 204.919 28.4967ZM173.653 28.4967V20.4863H204.647C211.091 20.4863 213.917 18.9112 213.917 14.7485C213.917 10.5858 211.091 8.96576 204.647 8.96576H173.653V0.932891H204.014C215.861 0.932891 223.751 4.19554 223.751 13.601C223.894 15.692 223.421 17.7792 222.389 19.6061C221.356 21.4329 219.811 22.9198 217.941 23.8839C220.287 24.9455 222.272 26.6642 223.652 28.8299C225.034 30.9956 225.751 33.5146 225.718 36.0795C225.718 45.3949 218.144 50.4352 205.891 50.4352H173.653V28.4967ZM279.908 50.4352L274.663 39.1847L270.775 30.8818L260.262 8.80825L249.817 30.6793L245.658 39.1847L240.3 50.4352H229.832L254.701 0.932891H266.004L290.466 50.4352H279.908ZM151.271 50.4352H161.128V0.932891H151.294V50.4352H151.271ZM89.1003 50.4352H113.765C130.404 50.4352 142.047 42.2673 142.047 25.369C142.047 7.52569 129.297 0.932891 113.358 0.932891H89.1003V50.4352ZM98.9346 42.1323V9.23577H108.905C125.408 9.23577 132.19 13.3985 132.19 25.504C132.19 37.0921 125.679 42.1323 108.905 42.1323H98.9346ZM23.6967 50.4352H33.1241V13.3985L68.1884 50.4352H77.2314V0.932891H67.7814V36.687L34.0962 0.932891H23.6967V50.4352ZM1.33789 50.4352H11.1722V0.932891H1.33789V50.4352Z" fill="#1E5395"/>
    <path d="M15.9704 76.7883C15.9704 79.6056 15.2038 81.7615 13.6706 83.2558C12.1451 84.7423 9.94649 85.4856 7.07462 85.4856H2.34653V68.4178H7.57661C10.2306 68.4178 12.293 69.1533 13.764 70.6242C15.2349 72.0952 15.9704 74.1499 15.9704 76.7883ZM13.8691 76.8583C13.8691 74.6324 13.3087 72.9552 12.188 71.8267C11.075 70.6982 9.41726 70.1339 7.21471 70.1339H4.33116V83.7695H6.74774C9.11373 83.7695 10.8921 83.1897 12.0829 82.03C13.2737 80.8626 13.8691 79.1387 13.8691 76.8583ZM43.1696 85.4856H33.6551V68.4178H43.1696V70.1806H35.6397V75.6792H42.7143V77.4303H35.6397V83.7111H43.1696V85.4856ZM70.3455 85.4856H60.831V68.4178H70.3455V70.1806H62.8156V75.6792H69.8902V77.4303H62.8156V83.7111H70.3455V85.4856ZM98.8289 73.391C98.8289 75.1188 98.2374 76.4497 97.0544 77.3836C95.8792 78.3098 94.1942 78.7729 91.9994 78.7729H89.9915V85.4856H88.0068V68.4178H92.4314C96.6964 68.4178 98.8289 70.0755 98.8289 73.391ZM89.9915 77.0684H91.7776C93.5366 77.0684 94.8091 76.7844 95.5951 76.2162C96.3812 75.6481 96.7742 74.7375 96.7742 73.4844C96.7742 72.3559 96.4045 71.5154 95.6652 70.9628C94.9258 70.4102 93.7739 70.1339 92.2096 70.1339H89.9915V77.0684ZM136.358 68.4178H141.179C143.444 68.4178 145.083 68.7563 146.094 69.4335C147.106 70.1106 147.612 71.1807 147.612 72.6439C147.612 73.6557 147.328 74.4923 146.76 75.1539C146.199 75.8076 145.378 76.2318 144.297 76.4263V76.5431C146.888 76.9867 148.184 78.3487 148.184 80.6291C148.184 82.1545 147.666 83.3453 146.631 84.2014C145.604 85.0575 144.164 85.4856 142.312 85.4856H136.358V68.4178ZM138.343 75.7259H141.611C143.012 75.7259 144.02 75.508 144.635 75.0721C145.25 74.6285 145.557 73.8852 145.557 72.8423C145.557 71.8851 145.215 71.1963 144.53 70.776C143.845 70.3479 142.755 70.1339 141.261 70.1339H138.343V75.7259ZM138.343 77.407V83.7928H141.903C143.281 83.7928 144.316 83.5282 145.009 82.999C145.709 82.462 146.059 81.6253 146.059 80.489C146.059 79.4305 145.701 78.6522 144.985 78.1541C144.277 77.656 143.195 77.407 141.74 77.407H138.343ZM175.243 85.4856H165.729V68.4178H175.243V70.1806H167.713V75.6792H174.788V77.4303H167.713V83.7111H175.243V85.4856ZM203.633 85.4856L201.508 80.0571H194.667L192.566 85.4856H190.558L197.306 68.3477H198.975L205.688 85.4856H203.633ZM200.89 78.2709L198.905 72.9824C198.648 72.3131 198.384 71.492 198.111 70.5192C197.94 71.2663 197.695 72.0874 197.376 72.9824L195.368 78.2709H200.89ZM234.79 68.4178V79.4617C234.79 81.4074 234.202 82.9367 233.027 84.0497C231.852 85.1626 230.237 85.7191 228.182 85.7191C226.128 85.7191 224.536 85.1587 223.408 84.038C222.287 82.9173 221.726 81.3762 221.726 79.415V68.4178H223.711V79.5551C223.711 80.9793 224.1 82.0728 224.878 82.8355C225.657 83.5983 226.801 83.9796 228.311 83.9796C229.751 83.9796 230.86 83.5983 231.638 82.8355C232.416 82.065 232.805 80.9638 232.805 79.5317V68.4178H234.79ZM258.44 85.4856H256.456V70.1806H251.05V68.4178H263.845V70.1806H258.44V85.4856ZM284.635 76.9517L289.188 68.4178H291.336L285.639 78.8663V85.4856H283.631V78.9597L277.946 68.4178H280.117L284.635 76.9517Z" fill="#1E5395"/>
</svg>
