<svg width="293" height="93" viewBox="0 0 293 93" fill="none" xmlns="http://www.w3.org/2000/svg">
    <path fill-rule="evenodd" clip-rule="evenodd" d="M283.223 5.22025H285.348C285.527 5.19941 285.701 5.15398 285.868 5.08524L286.23 4.74773C286.284 4.5566 286.284 4.35383 286.23 4.1627C286.25 3.96532 286.203 3.76704 286.094 3.60018L285.778 3.26266C285.611 3.19392 285.436 3.14849 285.258 3.12765H283.155L283.223 5.22025ZM284.489 6.03029H283.223V9.02293H282.319V2.27261H285.032C285.635 2.21904 286.239 2.3871 286.727 2.74514C286.908 2.92818 287.048 3.14705 287.137 3.38745C287.227 3.62785 287.263 3.88434 287.247 4.1402C287.259 4.40204 287.213 4.6633 287.112 4.90524C287.035 5.11731 286.91 5.30953 286.75 5.46776C286.58 5.60945 286.39 5.7234 286.185 5.80528C285.974 5.89625 285.755 5.96413 285.529 6.00779L287.609 9.00042H286.479L284.489 6.03029ZM279.696 5.67027C279.696 6.3122 279.828 6.94741 280.081 7.53786C280.323 8.10412 280.678 8.61662 281.121 9.04543C281.571 9.48687 282.104 9.83541 282.69 10.071C283.275 10.3065 283.904 10.4245 284.534 10.418C285.181 10.4314 285.823 10.317 286.424 10.0814C287.026 9.84581 287.575 9.49367 288.039 9.04543C288.475 8.61089 288.828 8.0998 289.079 7.53786C289.332 6.94741 289.463 6.3122 289.463 5.67027C289.467 5.03513 289.336 4.40632 289.079 3.82519C288.828 3.25649 288.475 2.73798 288.039 2.29512C287.116 1.40822 285.884 0.908705 284.602 0.900051C283.958 0.903022 283.32 1.03303 282.726 1.28257C282.149 1.52346 281.62 1.86652 281.166 2.29512C280.736 2.7389 280.39 3.25751 280.149 3.82519C279.875 4.40362 279.721 5.03122 279.696 5.67027ZM278.792 5.67027C278.781 4.89691 278.937 4.13014 279.244 3.42017C279.852 2.08446 280.94 1.02446 282.296 0.450031C283.7 -0.137345 285.28 -0.150218 286.693 0.414204C288.106 0.978625 289.241 2.07485 289.847 3.46517C290.161 4.17418 290.324 4.94047 290.324 5.71527C290.324 6.49007 290.161 7.25637 289.847 7.96538C289.232 9.28331 288.131 10.3148 286.773 10.8455C286.056 11.1443 285.287 11.2973 284.512 11.2955C283.736 11.2992 282.965 11.1461 282.251 10.8455C281.573 10.566 280.958 10.1527 280.442 9.63045C279.918 9.11345 279.495 8.50277 279.199 7.83037C278.896 7.11866 278.742 6.35306 278.747 5.58027L278.792 5.67027ZM204.919 28.4967H183.532V42.4023H204.919C211.158 42.4023 215.861 41.1872 215.861 35.3145C215.861 30.1842 211.588 28.4967 204.919 28.4967ZM173.653 28.4967V20.4863H204.647C211.091 20.4863 213.917 18.9112 213.917 14.7485C213.917 10.5858 211.091 8.96576 204.647 8.96576H173.653V0.932891H204.014C215.861 0.932891 223.751 4.19554 223.751 13.601C223.894 15.692 223.421 17.7792 222.389 19.6061C221.356 21.4329 219.811 22.9198 217.941 23.8839C220.287 24.9455 222.272 26.6642 223.652 28.8299C225.034 30.9956 225.751 33.5146 225.718 36.0795C225.718 45.3949 218.144 50.4352 205.891 50.4352H173.653V28.4967ZM279.908 50.4352L274.663 39.1847L270.775 30.8818L260.262 8.80825L249.817 30.6793L245.658 39.1847L240.3 50.4352H229.832L254.701 0.932891H266.004L290.466 50.4352H279.908ZM151.271 50.4352H161.128V0.932891H151.294V50.4352H151.271ZM89.1003 50.4352H113.765C130.404 50.4352 142.047 42.2673 142.047 25.369C142.047 7.52569 129.297 0.932891 113.358 0.932891H89.1003V50.4352ZM98.9346 42.1323V9.23577H108.905C125.408 9.23577 132.19 13.3985 132.19 25.504C132.19 37.0921 125.679 42.1323 108.905 42.1323H98.9346ZM23.6967 50.4352H33.1241V13.3985L68.1884 50.4352H77.2314V0.932891H67.7814V36.687L34.0962 0.932891H23.6967V50.4352ZM1.33789 50.4352H11.1722V0.932891H1.33789V50.4352Z" fill="#1E5395"/>
    <path d="M13.0752 85.4856L10.9505 80.0571H4.10935L2.00798 85.4856H0L6.74774 68.3477H8.41716L15.1299 85.4856H13.0752ZM10.3317 78.2709L8.34711 72.9824C8.09028 72.3131 7.82566 71.492 7.55326 70.5192C7.38204 71.2663 7.13688 72.0874 6.81778 72.9824L4.80981 78.2709H10.3317ZM39.7743 85.4856H37.5095L28.1817 71.1612H28.0883C28.2129 72.8423 28.2751 74.3833 28.2751 75.7843V85.4856H26.4423V68.4178H28.6837L37.9881 82.6838H38.0815C38.066 82.4736 38.0309 81.8004 37.9765 80.6641C37.922 79.52 37.9025 78.7028 37.9181 78.2125V68.4178H39.7743V85.4856ZM53.4332 85.4856V68.4178H55.4178V85.4856H53.4332ZM76.63 85.4856L70.8396 70.3557H70.7462C70.8551 71.5543 70.9096 72.9785 70.9096 74.6285V85.4856H69.0767V68.4178H72.0654L77.4706 82.497H77.564L83.0158 68.4178H85.9811V85.4856H83.9965V74.4884C83.9965 73.2276 84.051 71.8578 84.1599 70.3791H84.0665L78.2294 85.4856H76.63ZM110.369 85.4856L108.244 80.0571H101.403L99.3015 85.4856H97.2935L104.041 68.3477H105.711L112.423 85.4856H110.369ZM107.625 78.2709L105.641 72.9824C105.384 72.3131 105.119 71.492 104.847 70.5192C104.676 71.2663 104.43 72.0874 104.111 72.9824L102.103 78.2709H107.625ZM123.736 85.4856V68.4178H125.72V83.6878H133.25V85.4856H123.736ZM173.258 85.4856H171.273V77.4537H162.284V85.4856H160.3V68.4178H162.284V75.6792H171.273V68.4178H173.258V85.4856ZM196.432 85.4856H186.917V68.4178H196.432V70.1806H188.902V75.6792H195.976V77.4303H188.902V83.7111H196.432V85.4856ZM219.92 85.4856L217.795 80.0571H210.954L208.853 85.4856H206.845L213.593 68.3477H215.262L221.975 85.4856H219.92ZM217.177 78.2709L215.192 72.9824C214.935 72.3131 214.671 71.492 214.398 70.5192C214.227 71.2663 213.982 72.0874 213.663 72.9824L211.655 78.2709H217.177ZM233.287 85.4856V68.4178H235.272V83.6878H242.802V85.4856H233.287ZM259.928 85.4856H257.943V70.1806H252.538V68.4178H265.333V70.1806H259.928V85.4856ZM289.837 85.4856H287.853V77.4537H278.864V85.4856H276.879V68.4178H278.864V75.6792H287.853V68.4178H289.837V85.4856Z" fill="#1E5395"/>
</svg>
