<svg width="127" height="30" viewBox="0 0 127 30" fill="none" xmlns="http://www.w3.org/2000/svg">
    <path d="M40.0483 29.4845H47.3013V3.46846H40.0483V29.4845Z" fill="#1476C6"/>
    <path d="M14.1906 3.94156L14.6634 2.99564C14.5057 3.31071 14.348 3.62613 14.1906 3.94156Z" fill="#1476C6"/>
    <path d="M25.0698 2.99564L25.5426 3.78388C25.3849 3.46846 25.2275 3.15338 25.0698 2.99564Z" fill="#1476C6"/>
    <path d="M25.5426 3.78388L25.0698 2.99564C23.8082 0.945799 21.7587 0 19.8666 0C18.4476 0 16.0824 0.945799 14.6634 2.99564L0 29.6419L9.30247 29.4845L11.9831 24.7541H27.5924L29.9577 29.4845H39.5755L25.5426 3.78388ZM15.2942 18.762L19.7089 10.4061L24.2813 18.762H15.2942Z" fill="#1476C6"/>
    <path d="M87.9801 10.7215C87.9801 10.7215 87.9801 10.7215 88.1375 10.7215H87.9801Z" fill="#1476C6"/>
    <path d="M100.751 16.2401C100.12 13.8749 99.6475 11.825 93.8134 10.8791C92.0797 10.5638 89.7145 10.7215 87.9801 10.7215C86.2457 10.7215 84.0385 10.5638 82.3041 10.8791C76.3127 11.825 75.9973 13.8749 75.2091 16.2401C75.051 17.1856 75.051 19.3928 75.051 20.1809C75.051 21.1279 75.3665 24.5967 75.5238 25.0688C76.1547 27.7494 78.2045 29.3272 82.3041 29.6419C83.4077 29.6419 85.7722 30.1153 87.9801 29.9566C90.1872 30.1153 92.8679 29.7992 93.9715 29.6419C98.7012 29.0111 99.9629 27.7494 100.594 25.0688C100.594 24.5967 101.066 21.1279 101.066 20.1809C101.066 19.3928 100.909 17.1856 100.751 16.2401ZM93.3407 22.2308C93.1833 23.3351 92.237 23.9659 90.5027 24.1232C90.0299 24.1232 88.9264 24.1232 87.9801 24.1232C87.0339 24.1232 85.9303 24.1232 85.4575 24.1232C83.7231 23.9659 82.935 23.3351 82.6189 22.2308C82.6189 21.916 82.4615 20.4971 82.4615 20.1809C82.4615 19.8662 82.4615 18.9208 82.4615 18.4473C82.7769 17.5017 82.935 16.7122 85.4575 16.2401C86.2457 16.2401 87.3493 16.0827 87.9801 16.0827C88.7683 16.0827 89.7145 16.2401 90.5027 16.2401C93.0253 16.7122 93.1833 17.5017 93.4987 18.4473C93.6561 18.9208 93.6561 19.8662 93.6561 20.1809C93.6561 20.4971 93.4987 22.0734 93.3407 22.2308Z" fill="#1476C6"/>
    <path d="M126.767 16.0827C126.767 14.5054 125.821 11.825 120.145 10.8791C118.252 10.5638 117.149 10.7215 115.414 10.7215C113.207 10.7215 110.842 11.6674 109.581 12.929C109.581 12.929 109.581 12.929 109.423 12.929V10.7215H102.17V29.4845H109.423V20.1809C109.423 18.762 110.054 17.659 111.63 16.7122C112.419 16.3975 113.207 16.2401 114.468 16.2401C115.887 16.2401 116.361 16.2401 117.149 16.3975C119.041 17.0283 119.514 17.659 119.514 19.3928V29.4845H126.767V16.0827Z" fill="#1476C6"/>
    <path d="M61.9644 29.9566C59.7572 29.9566 57.2343 29.6419 56.1307 29.6419C52.0314 29.3272 49.9816 27.7494 49.5085 25.0688C49.3507 24.4379 48.8777 21.1279 48.8777 20.1809C48.8777 19.3928 49.0354 17.0283 49.1931 16.2401C49.8239 13.7172 50.2966 11.9827 56.1307 11.0369C57.8651 10.7215 60.2299 10.7215 61.9644 10.7215C63.6988 10.7215 65.9063 10.7215 67.7981 11.0369C70.0059 11.3519 71.4242 12.1405 72.2131 13.0863L67.0099 19.7089C67.0099 19.2355 67.0099 18.762 66.8521 18.4473C66.5368 17.5017 66.3794 16.7122 63.8565 16.2401C63.0683 16.2401 62.7525 16.0827 61.9644 16.0827C61.1762 16.0827 60.2299 16.2401 59.4415 16.2401C56.9189 16.7122 56.7615 17.5017 56.4461 18.4473C56.2884 18.9208 56.2884 19.8662 56.2884 20.1809C56.2884 20.4971 56.4461 22.0734 56.6038 22.2308C56.7615 23.3351 57.7073 23.9659 59.4415 24.1232C59.9149 24.1232 61.0185 24.1232 61.9644 24.1232C62.9106 24.1232 64.0142 24.1232 64.4873 24.1232C67.0099 23.9659 70.9515 23.1778 73.7894 19.8662C73.7894 19.8662 73.474 24.7541 73.474 25.3849C72.8439 27.9068 71.8977 29.3272 67.7981 29.6419C66.6945 29.6419 64.1719 29.9566 61.9644 29.9566Z" fill="#1476C6"/>
</svg>
